<?xml version="1.0" encoding="UTF-8"?>
<svg id="Livello_2" data-name="Livello 2" xmlns="http://www.w3.org/2000/svg" xmlns:xlink="http://www.w3.org/1999/xlink" viewBox="0 0 518.04 126.28">
  <defs>
    <style>
      .cls-1 {
        fill: #561818;
      }

      .cls-2 {
        stroke: #fff;
        stroke-miterlimit: 10;
      }

      .cls-2, .cls-3 {
        fill: #fff;
      }

      .cls-4 {
        fill: url(#radial-gradient);
      }
    </style>
    <radialGradient id="radial-gradient" cx="45.33" cy="100.34" fx="45.33" fy="100.34" r="99.33" gradientUnits="userSpaceOnUse">
      <stop offset=".05" stop-color="#f05224"/>
      <stop offset=".29" stop-color="#ea4e24"/>
      <stop offset=".59" stop-color="#db4325"/>
      <stop offset=".93" stop-color="#c13228"/>
      <stop offset="1" stop-color="#bb2e29"/>
    </radialGradient>
  </defs>
  <g id="Layer_1" data-name="Layer 1">
    <path class="cls-3" d="M229.59,42.13l-13.58,1.79,5.96,45.15.53.07h13.29l-6.21-47.01Z"/>
    <path class="cls-3" d="M157.84,29.09v37.92c0,13.35-7.96,24.57-24.22,24.57s-24.31-11.14-24.31-24.57V29.09h11.4v37.92c0,8.04,4.24,13.97,12.91,13.97s12.99-6.01,12.99-13.97V29.09h11.23Z"/>
    <path class="cls-3" d="M211.16,59.84v29.08h-11.31v-26.96c0-6.72-4.15-10.7-10.52-10.7-6.1.09-10.7,4.42-10.78,9.63v28.02h-11.23v-46.58h10.61v5.13c3.18-3.62,8.31-6.19,14.67-6.19,11.49,0,18.56,7.51,18.56,18.56Z"/>
    <path class="cls-3" d="M255.59,48.07c3.62-3.89,9.24-6.79,15.42-6.79,13.35,0,22.81,10.43,22.81,24.4s-9.72,24.31-23.07,24.31c-6.54,0-11.76-2.56-15.38-6.98M282.59,65.68c0-8.31-5.66-14.41-13.35-14.41s-13.52,5.83-13.52,14.41,5.48,14.41,13.52,14.41,13.35-6.1,13.35-14.41Z"/>
    <path class="cls-3" d="M299.86,65.68c0-13.97,10.25-24.4,24.84-24.4s24.84,10.43,24.84,24.4-10.34,24.31-24.84,24.31-24.84-10.43-24.84-24.31ZM338.23,65.59c0-8.31-5.39-14.23-13.44-14.23s-13.7,5.92-13.7,14.32,5.57,14.32,13.7,14.32,13.44-6.01,13.44-14.41Z"/>
    <path class="cls-1" d="M409.78,29.09v62.49h-12.41l-24.28-36.51v36.51h-15.02V29.09h12.5l24.19,36.78V29.09h15.02Z"/>
    <path class="cls-1" d="M463.19,78.19v13.4h-42.8V29.09h15.02v49.1h27.78Z"/>
    <path class="cls-1" d="M518.04,49.23c0,12.14-8.72,20.05-22.21,20.05h-11.24v22.3h-15.02V29.09h26.26c13.67,0,22.21,7.91,22.21,20.14ZM502.76,49.23c0-4.05-2.52-7.01-7.82-7.01h-10.34v13.94h10.34c5.31,0,7.82-2.97,7.82-6.92Z"/>
    <path class="cls-4" d="M79.49.67H11.17C5,.67,0,5.66,0,11.83v68.32c0,6.17,5,11.17,11.17,11.17h16.69c2.94,0,5.7,1.38,7.48,3.72l5.68,7.5c2.17,2.86,6.47,2.86,8.64,0l5.68-7.5c1.77-2.34,4.54-3.72,7.48-3.72h16.69c6.17,0,11.17-5,11.17-11.17V11.83c0-6.17-5-11.17-11.17-11.17Z"/>
    <g>
      <polygon class="cls-3" points="45.03 74.66 35.88 74.66 28.19 46.3 36.72 43.99 45.03 74.66"/>
      <rect class="cls-3" x="28.19" y="74.66" width="33.69" height="2.89"/>
    </g>
    <rect id="Inferiata_1" data-name="Inferiata 1" class="cls-3" x="44.81" y="17.38" width="1.64" height="2.2"/>
    <path class="cls-3" d="M53.12,22.28v22.47c.43.28.69.75.69,1.27v29.04h-8.83v-29.04c0-.51.26-.99.69-1.27v-22.47c0-.24-.2-.45-.45-.45h-.41v-3.4h9.17v3.4h-.41c-.24,0-.44.2-.44.45Z"/>
    <rect id="Inferiata_1-2" data-name="Inferiata 1" class="cls-3" x="52.35" y="17.38" width="1.64" height="2.2"/>
    <rect id="Inferiata_1-3" data-name="Inferiata 1" class="cls-3" x="47.33" y="17.38" width="1.64" height="2.2"/>
    <rect id="Inferiata_1-4" data-name="Inferiata 1" class="cls-3" x="49.84" y="17.38" width="1.64" height="2.2"/>
    <rect id="Inferiata_1-5" data-name="Inferiata 1" class="cls-3" x="241.27" width="2.8" height="3.41"/>
    <path class="cls-3" d="M255.49,7.57v34.71c.73.43,1.17,1.16,1.17,1.96v44.86h-15.11v-44.86c0-.8.44-1.53,1.17-1.96V7.57c0-.38-.35-.69-.77-.69h-.69V1.62h15.68v5.25h-.7c-.41,0-.76.31-.76.69Z"/>
    <rect id="Inferiata_1-6" data-name="Inferiata 1" class="cls-3" x="254.16" width="2.8" height="3.41"/>
    <rect id="Inferiata_1-7" data-name="Inferiata 1" class="cls-3" x="245.58" width="2.8" height="3.41"/>
    <rect id="Inferiata_1-8" data-name="Inferiata 1" class="cls-3" x="249.87" width="2.8" height="3.41"/>
    <g>
      <path class="cls-2" d="M127.49,117.32h-.08c-.76,2.21-2.25,3.31-4.48,3.31-1.43,0-2.57-.47-3.44-1.4-.87-.94-1.3-2.2-1.3-3.78,0-2.1.6-3.84,1.8-5.22s2.78-2.08,4.74-2.08c.75,0,1.42.17,2.01.51.59.34.97.77,1.13,1.29h.06c.02-.26.07-.79.16-1.6h1.95c-.49,5.11-.73,7.71-.73,7.8,0,1.92.62,2.88,1.86,2.88,1.12,0,2.06-.54,2.8-1.63.74-1.08,1.12-2.49,1.12-4.21,0-2.55-.91-4.63-2.72-6.24-1.81-1.61-4.32-2.42-7.53-2.42s-5.65.96-7.67,2.89c-2.02,1.93-3.03,4.34-3.03,7.23s.96,5.14,2.88,6.89c1.92,1.75,4.51,2.62,7.77,2.62,2.57,0,4.77-.38,6.59-1.14v1.72c-1.8.69-4.05,1.03-6.75,1.03-3.79,0-6.84-1.02-9.16-3.05-2.32-2.03-3.48-4.7-3.48-7.99s1.22-6.21,3.65-8.44c2.43-2.23,5.54-3.35,9.32-3.35,3.54,0,6.47.94,8.79,2.81,2.32,1.87,3.48,4.32,3.48,7.33,0,2.21-.61,4.02-1.83,5.43-1.22,1.41-2.72,2.12-4.48,2.12-2.28,0-3.43-1.1-3.44-3.31ZM124.69,109.76c-1.29,0-2.33.55-3.13,1.64s-1.19,2.45-1.19,4.07c0,1.09.27,1.96.8,2.59s1.25.95,2.15.95c1.29,0,2.31-.57,3.07-1.72.75-1.15,1.13-2.66,1.13-4.55s-.94-2.98-2.83-2.98Z"/>
      <path class="cls-2" d="M174.03,122.33c-1.66.78-3.72,1.17-6.19,1.17-3.19,0-5.74-.91-7.65-2.74-1.92-1.83-2.87-4.22-2.87-7.19,0-3.19,1.08-5.77,3.23-7.73s4.89-2.95,8.2-2.95c2.12,0,3.88.27,5.28.82v2.49c-1.6-.8-3.37-1.2-5.31-1.2-2.57,0-4.66.76-6.25,2.29-1.6,1.53-2.4,3.57-2.4,6.13s.75,4.36,2.24,5.81c1.49,1.44,3.45,2.16,5.88,2.16,2.25,0,4.2-.45,5.84-1.34v2.27Z"/>
      <path class="cls-2" d="M206.46,123.16h-11.87v-19.94h11.37v2.11h-8.75v6.63h8.09v2.1h-8.09v6.98h9.25v2.11Z"/>
      <path class="cls-2" d="M225.71,122.35v-2.75c.35.28.78.53,1.27.75.49.22,1.02.41,1.56.56.55.15,1.1.27,1.65.35.55.08,1.06.13,1.53.13,1.61,0,2.82-.27,3.62-.8.8-.53,1.19-1.3,1.19-2.3,0-.54-.13-1.01-.4-1.4s-.63-.76-1.1-1.09c-.47-.33-1.02-.64-1.66-.95-.64-.3-1.33-.62-2.07-.95-.78-.35-1.51-.71-2.19-1.07-.68-.36-1.27-.76-1.77-1.2-.5-.44-.89-.93-1.18-1.48-.29-.55-.43-1.2-.43-1.94,0-.91.22-1.7.67-2.37.45-.67,1.04-1.23,1.76-1.66.73-.44,1.56-.76,2.49-.97.93-.21,1.88-.32,2.85-.32,2.21,0,3.82.24,4.83.71v2.63c-1.32-.82-3.02-1.22-5.09-1.22-.57,0-1.15.05-1.72.16-.57.11-1.08.28-1.53.52-.45.24-.81.55-1.09.93-.28.38-.42.84-.42,1.39,0,.51.11.95.32,1.32.21.37.53.71.94,1.02.42.31.92.6,1.52.89.6.29,1.29.6,2.07.95.8.35,1.56.72,2.28,1.11.72.39,1.35.82,1.89,1.29.54.47.97,1,1.29,1.57.32.58.48,1.23.48,1.97,0,.98-.22,1.81-.65,2.5-.43.68-1.02,1.24-1.75,1.66-.73.43-1.58.73-2.54.92-.96.19-1.97.29-3.03.29-.35,0-.79-.03-1.31-.08-.52-.05-1.05-.12-1.59-.22-.54-.1-1.05-.22-1.54-.36-.48-.14-.87-.3-1.16-.48Z"/>
      <path class="cls-2" d="M271.62,123.16h-11.87v-19.94h11.37v2.11h-8.75v6.63h8.09v2.1h-8.09v6.98h9.25v2.11Z"/>
      <path class="cls-2" d="M309.98,123.16h-3.22l-11.53-15.89c-.29-.4-.53-.82-.72-1.25h-.09c.08.43.12,1.34.12,2.74v14.41h-2.62v-19.94h3.4l11.21,15.64c.47.65.77,1.09.91,1.33h.06c-.1-.58-.16-1.55-.16-2.93v-14.04h2.62v19.94Z"/>
      <path class="cls-2" d="M349.18,123.16h-2.91l-2.37-5.59h-9.5l-2.23,5.59h-2.92l8.59-19.94h2.72l8.62,19.94ZM343.04,115.47l-3.51-8.5c-.12-.28-.23-.72-.34-1.33h-.06c-.1.57-.22,1.01-.36,1.33l-3.48,8.5h7.76Z"/>
    </g>
  </g>
</svg>