<?xml version="1.0" encoding="UTF-8"?>
<svg id="Livello_2" data-name="Livello 2" xmlns="http://www.w3.org/2000/svg" xmlns:xlink="http://www.w3.org/1999/xlink" viewBox="0 0 350.55 402.25">
  <defs>
    <style>
      .cls-1 {
        fill: #fff;
      }

      .cls-2 {
        fill: url(#radial-gradient);
      }
    </style>
    <radialGradient id="radial-gradient" cx="175.28" cy="385.41" fx="175.28" fy="385.41" r="384.1" gradientUnits="userSpaceOnUse">
      <stop offset=".05" stop-color="#f05224"/>
      <stop offset=".29" stop-color="#ea4e24"/>
      <stop offset=".59" stop-color="#db4325"/>
      <stop offset=".93" stop-color="#c13228"/>
      <stop offset="1" stop-color="#bb2e29"/>
    </radialGradient>
  </defs>
  <g id="Layer_1" data-name="Layer 1">
    <g>
      <path class="cls-2" d="M307.37,0H43.18C19.33,0,0,19.33,0,43.18v264.19c0,23.85,19.33,43.18,43.18,43.18h64.54c11.36,0,22.05,5.32,28.9,14.38l21.95,29.01c8.38,11.08,25.02,11.08,33.4,0l21.95-29.01c6.85-9.06,17.55-14.38,28.9-14.38h64.54c23.85,0,43.18-19.33,43.18-43.18V43.18c0-23.85-19.33-43.18-43.18-43.18Z"/>
      <g>
        <polygon class="cls-1" points="174.13 282.26 138.73 282.26 109 172.59 141.98 163.65 174.13 282.26"/>
        <rect class="cls-1" x="109" y="282.26" width="130.26" height="11.19"/>
      </g>
      <g>
        <rect id="Inferiata_1" data-name="Inferiata 1" class="cls-1" x="173.26" y="60.78" width="6.32" height="8.52"/>
        <path class="cls-1" d="M205.41,79.72v86.89c1.65,1.07,2.66,2.91,2.66,4.9v112.28h-34.16v-112.28c0-1.99,1-3.83,2.66-4.9v-86.89c0-.94-.78-1.73-1.74-1.73h-1.57v-13.14h35.47v13.14h-1.59c-.94,0-1.72.79-1.72,1.73Z"/>
        <rect id="Inferiata_1-2" data-name="Inferiata 1" class="cls-1" x="202.41" y="60.78" width="6.32" height="8.52"/>
        <rect id="Inferiata_1-3" data-name="Inferiata 1" class="cls-1" x="183.01" y="60.78" width="6.32" height="8.52"/>
        <rect id="Inferiata_1-4" data-name="Inferiata 1" class="cls-1" x="192.71" y="60.78" width="6.32" height="8.52"/>
      </g>
    </g>
  </g>
</svg>