<?xml version="1.0" encoding="UTF-8"?>
<svg id="Livello_2" data-name="Livello 2" xmlns="http://www.w3.org/2000/svg" xmlns:xlink="http://www.w3.org/1999/xlink" viewBox="0 0 349.57 401.44">
  <defs>
    <style>
      .cls-1 {
        fill: #fff;
      }

      .cls-2 {
        fill: url(#radial-gradient);
      }
    </style>
    <radialGradient id="radial-gradient" cx="180.51" cy="407.61" fx="180.51" fy="407.61" r="395.5" gradientTransform="translate(-.03 -10.43) scale(.97)" gradientUnits="userSpaceOnUse">
      <stop offset=".05" stop-color="#f05224"/>
      <stop offset=".29" stop-color="#ea4e24"/>
      <stop offset=".59" stop-color="#db4325"/>
      <stop offset=".93" stop-color="#c13228"/>
      <stop offset="1" stop-color="#bb2e29"/>
    </radialGradient>
  </defs>
  <g id="Layer_1" data-name="Layer 1">
    <path class="cls-2" d="M306.51,0H43.06C19.28,0,0,19.29,0,43.09v263.66c0,23.8,19.28,43.09,43.06,43.09h64.36c11.32,0,21.99,5.31,28.82,14.35l21.88,28.95c8.36,11.05,24.95,11.05,33.31,0l21.89-28.95c6.83-9.04,17.5-14.35,28.82-14.35h64.36c23.78,0,43.06-19.29,43.06-43.09V43.09c0-23.8-19.28-43.09-43.06-43.09Z"/>
    <g>
      <rect id="Inferiata_1" data-name="Inferiata 1" class="cls-1" x="188.91" y="52.66" width="2.9" height="3.9"/>
      <path class="cls-1" d="M203.68,61.32v39.73c.76.49,1.22,1.33,1.22,2.24v51.34h-15.69v-51.34c0-.91.46-1.75,1.22-2.24v-39.73c0-.43-.36-.79-.8-.79h-.72v-6.01h16.29v6.01h-.73c-.43,0-.79.36-.79.79Z"/>
      <polygon class="cls-1" points="188.08 154.63 171.84 154.63 158.2 104.3 173.33 100.2 188.08 154.63"/>
      <path class="cls-1" d="M92.81,84.3v43.42c0,15.28-9.11,28.14-27.73,28.14s-27.83-12.75-27.83-28.14v-43.42h13.06v43.42c0,9.21,4.86,15.99,14.78,15.99s14.88-6.88,14.88-15.99v-43.42h12.85Z"/>
      <path class="cls-1" d="M153.87,121.34v33.3h-12.96v-30.87c0-7.69-4.76-12.25-12.04-12.25-6.98.1-12.25,5.06-12.35,11.03v32.08h-12.85v-53.34h12.15v5.87c3.64-4.15,9.51-7.08,16.8-7.08,13.16,0,21.25,8.6,21.25,21.25Z"/>
      <path class="cls-1" d="M204.75,107.86c4.15-4.45,10.58-7.78,17.66-7.78,15.28,0,26.11,11.94,26.11,27.93s-11.13,27.83-26.42,27.83c-7.49,0-13.46-2.94-17.61-8l.25-40ZM235.67,128.02c0-9.51-6.48-16.5-15.28-16.5s-15.49,6.68-15.49,16.5,6.28,16.5,15.49,16.5,15.28-6.98,15.28-16.5Z"/>
      <path class="cls-1" d="M255.44,128.02c0-15.99,11.74-27.93,28.44-27.93s28.44,11.94,28.44,27.93-11.84,27.83-28.44,27.83-28.44-11.94-28.44-27.83ZM299.36,127.92c0-9.51-6.17-16.29-15.38-16.29s-15.69,6.78-15.69,16.4,6.38,16.4,15.69,16.4,15.38-6.88,15.38-16.5Z"/>
      <g>
        <path class="cls-1" d="M126.15,176.09v107.46h-21.34l-41.75-62.78v62.78h-25.82v-107.46h21.49l41.59,63.24v-63.24h25.82Z"/>
        <path class="cls-1" d="M214.77,260.51v23.04h-73.6v-107.46h25.82v84.42h47.78Z"/>
        <path class="cls-1" d="M312.32,210.72c0,20.87-15,34.48-38.19,34.48h-19.33v38.35h-25.82v-107.46h45.15c23.5,0,38.19,13.61,38.19,34.64ZM286.03,210.72c0-6.96-4.33-12.06-13.45-12.06h-17.78v23.97h17.78c9.12,0,13.45-5.1,13.45-11.91Z"/>
      </g>
      <rect id="Inferiata_1-2" data-name="Inferiata 1" class="cls-1" x="202.3" y="52.66" width="2.9" height="3.9"/>
      <rect id="Inferiata_1-3" data-name="Inferiata 1" class="cls-1" x="193.39" y="52.66" width="2.9" height="3.9"/>
      <rect id="Inferiata_1-4" data-name="Inferiata 1" class="cls-1" x="197.85" y="52.66" width="2.9" height="3.9"/>
    </g>
  </g>
</svg>