<?xml version="1.0" encoding="UTF-8"?>
<svg id="Layer_2" data-name="Layer 2" xmlns="http://www.w3.org/2000/svg" xmlns:xlink="http://www.w3.org/1999/xlink" viewBox="0 0 360.96 414.19">
  <defs>
    <style>
      .cls-1 {
        fill: #fff;
      }

      .cls-1, .cls-2 {
        stroke-width: 0px;
      }

      .cls-2 {
        fill: url(#radial-gradient);
      }
    </style>
    <radialGradient id="radial-gradient" cx="180.48" cy="396.85" fx="180.48" fy="396.85" r="395.5" gradientUnits="userSpaceOnUse">
      <stop offset=".05" stop-color="#f05224"/>
      <stop offset=".29" stop-color="#ea4e24"/>
      <stop offset=".59" stop-color="#db4325"/>
      <stop offset=".93" stop-color="#c13228"/>
      <stop offset="1" stop-color="#bb2e29"/>
    </radialGradient>
  </defs>
  <g id="Layer_1-2" data-name="Layer 1">
    <g>
      <path class="cls-2" d="m316.5,0H44.46C19.91,0,0,19.91,0,44.46v272.04c0,24.56,19.91,44.46,44.46,44.46h66.46c11.69,0,22.71,5.48,29.76,14.8l22.6,29.87c8.63,11.41,25.77,11.41,34.39,0l22.6-29.87c7.05-9.32,18.07-14.8,29.76-14.8h66.46c24.56,0,44.46-19.91,44.46-44.46V44.46c0-24.56-19.91-44.46-44.46-44.46Z"/>
      <g>
        <path class="cls-1" d="m210.9,58.62v-6.01h-1.37c-.44,0-.79-.35-.79-.79v-1.77c0-2.76-1.87-5.08-4.42-5.77v-2.91c0-.85-.64-1.61-1.49-1.66-.91-.05-1.65.67-1.65,1.57v2.99c-2.54.69-4.42,3.01-4.42,5.77v1.77c0,.44-.35.79-.79.79h-1.37v6.01h.73c.44,0,.79.35.79.79v39.73h0c-.76.49-1.21,1.33-1.21,2.23v51.34s15.68,0,15.68,0v-51.34c0-.9-.46-1.74-1.21-2.23h0v-39.73c0-.44.35-.79.79-.79h.73Z"/>
        <polygon class="cls-1" points="193.78 152.72 177.54 152.72 163.9 102.39 179.03 98.29 193.78 152.72"/>
        <path class="cls-1" d="m98.51,82.38v43.42c0,15.28-9.11,28.14-27.73,28.14s-27.83-12.75-27.83-28.14v-43.42h13.06v43.42c0,9.21,4.86,15.99,14.78,15.99s14.88-6.88,14.88-15.99v-43.42h12.85Z"/>
        <path class="cls-1" d="m159.57,119.42v33.3h-12.96v-30.87c0-7.69-4.76-12.25-12.04-12.25-6.98.1-12.25,5.06-12.35,11.03v32.08h-12.85v-53.34h12.15v5.87c3.64-4.15,9.51-7.08,16.8-7.08,13.16,0,21.25,8.6,21.25,21.25Z"/>
        <path class="cls-1" d="m210.44,105.95c4.15-4.45,10.58-7.78,17.66-7.78,15.28,0,26.11,11.94,26.11,27.93s-11.13,27.83-26.42,27.83c-7.49,0-13.46-2.94-17.61-8m31.17-19.84c0-9.51-6.48-16.5-15.28-16.5s-15.49,6.68-15.49,16.5,6.28,16.5,15.49,16.5,15.28-6.98,15.28-16.5Z"/>
        <path class="cls-1" d="m261.14,126.1c0-15.99,11.74-27.93,28.44-27.93s28.44,11.94,28.44,27.93-11.84,27.83-28.44,27.83-28.44-11.94-28.44-27.83Zm43.93-.1c0-9.51-6.17-16.29-15.38-16.29s-15.69,6.78-15.69,16.4,6.38,16.4,15.69,16.4,15.38-6.88,15.38-16.5Z"/>
        <g>
          <path class="cls-1" d="m131.85,174.18v107.46h-21.34l-41.75-62.78v62.78h-25.82v-107.46h21.49l41.59,63.24v-63.24h25.82Z"/>
          <path class="cls-1" d="m223.7,258.6v23.04h-73.6v-107.46h25.82v84.42h47.78Z"/>
          <path class="cls-1" d="m318.02,208.81c0,20.87-15,34.48-38.19,34.48h-19.33v38.35h-25.82v-107.46h45.15c23.5,0,38.19,13.61,38.19,34.64Zm-26.29,0c0-6.96-4.33-12.06-13.45-12.06h-17.78v23.97h17.78c9.12,0,13.45-5.1,13.45-11.91Z"/>
        </g>
      </g>
    </g>
  </g>
</svg>